<svg width="512" height="512" viewBox="0 0 512 512" fill="none" xmlns="http://www.w3.org/2000/svg">
<path d="M394.281 142.328C394.281 152.683 385.886 161.078 375.531 161.078C365.177 161.078 356.781 152.683 356.781 142.328C356.781 131.974 365.177 123.578 375.531 123.578C385.886 123.578 394.281 131.974 394.281 142.328Z" fill="#F5737F"/>
<path d="M234.712 194.868C234.712 205.223 226.316 213.618 215.962 213.618C205.605 213.618 197.212 205.223 197.212 194.868C197.212 184.511 205.605 176.118 215.962 176.118C226.316 176.118 234.712 184.511 234.712 194.868Z" fill="#B0E7F8"/>
<path d="M314.56 213.618C314.56 223.973 306.166 232.368 295.81 232.368C285.455 232.368 277.06 223.973 277.06 213.618C277.06 203.261 285.455 194.868 295.81 194.868C306.166 194.868 314.56 203.261 314.56 213.618Z" fill="#FFCB7C"/>
<path d="M155.219 267.719C155.219 278.073 146.823 286.469 136.469 286.469C126.114 286.469 117.719 278.073 117.719 267.719C117.719 257.364 126.114 248.969 136.469 248.969C146.823 248.969 155.219 257.364 155.219 267.719Z" fill="#D8EC84"/>
<path d="M111.859 320.648H161.078V388.422H111.859V320.648Z" fill="#D8EC84"/>
<path d="M191.352 247.797H240.571V388.422H191.352V247.797Z" fill="#B0E7F8"/>
<path d="M271.2 266.547H320.419V388.422H271.2V266.547Z" fill="#FFCB7C"/>
<path d="M350.922 195.257H400.141V388.422H350.922V195.257Z" fill="#F5737F"/>
<path d="M161.078 314.788H111.859C108.623 314.788 106 317.411 106 320.648V388.422C106 391.658 108.623 394.281 111.859 394.281H161.078C164.315 394.281 166.938 391.658 166.938 388.422V320.648C166.938 317.414 164.315 314.788 161.078 314.788V314.788ZM155.219 382.562H117.719V326.507H155.219V382.562Z" fill="black"/>
<path d="M240.571 241.938H191.352C188.116 241.938 185.493 244.56 185.493 247.797V388.422C185.493 391.658 188.116 394.281 191.352 394.281H240.571C243.807 394.281 246.43 391.658 246.43 388.422V247.797C246.43 244.56 243.805 241.938 240.571 241.938ZM234.712 382.562H197.212V253.656H234.712V382.562Z" fill="black"/>
<path d="M320.419 260.688H271.2C267.966 260.688 265.341 263.31 265.341 266.547V388.422C265.341 391.658 267.966 394.281 271.2 394.281H320.419C323.655 394.281 326.278 391.658 326.278 388.422V266.547C326.278 263.31 323.655 260.688 320.419 260.688ZM314.56 382.562H277.06V272.406H314.56V382.562Z" fill="black"/>
<path d="M136.469 292.328C150.039 292.328 161.078 281.289 161.078 267.719C161.078 263.436 159.975 259.406 158.043 255.895L202.307 215.33C206.216 217.946 210.913 219.477 215.962 219.477C225.513 219.477 233.803 214.005 237.879 206.033L271.207 213.858C271.337 227.319 282.321 238.227 295.812 238.227C309.38 238.227 320.421 227.188 320.421 213.618C320.421 209.441 319.371 205.506 317.528 202.057L361.629 162.621C365.586 165.34 370.375 166.938 375.531 166.938C389.102 166.938 400.141 155.899 400.141 142.328C400.141 128.758 389.102 117.719 375.531 117.719C361.961 117.719 350.922 128.758 350.922 142.328C350.922 146.505 351.97 150.44 353.815 153.889L309.712 193.325C305.754 190.604 300.966 189.009 295.809 189.009C286.26 189.009 277.968 194.481 273.892 202.451L240.564 194.625C240.434 181.167 229.45 170.259 215.959 170.259C202.391 170.259 191.35 181.298 191.35 194.868C191.35 199.15 192.453 203.181 194.385 206.692L150.124 247.257C146.215 244.638 141.518 243.109 136.469 243.109C122.898 243.109 111.859 254.148 111.859 267.719C111.859 281.289 122.898 292.328 136.469 292.328V292.328ZM375.531 129.438C382.64 129.438 388.422 135.219 388.422 142.328C388.422 149.437 382.64 155.219 375.531 155.219C368.422 155.219 362.641 149.437 362.641 142.328C362.641 135.219 368.422 129.438 375.531 129.438ZM295.809 200.727C302.918 200.727 308.7 206.509 308.7 213.618C308.7 220.725 302.918 226.509 295.809 226.509C288.703 226.509 282.919 220.725 282.919 213.618C282.919 206.509 288.703 200.727 295.809 200.727ZM215.962 181.977C223.068 181.977 228.852 187.759 228.852 194.868C228.852 201.975 223.068 207.759 215.962 207.759C208.853 207.759 203.071 201.975 203.071 194.868C203.071 187.759 208.853 181.977 215.962 181.977ZM136.469 254.828C143.578 254.828 149.359 260.61 149.359 267.719C149.359 274.828 143.578 280.609 136.469 280.609C129.36 280.609 123.578 274.828 123.578 267.719C123.578 260.61 129.36 254.828 136.469 254.828Z" fill="black"/>
<path d="M400.141 189.398H350.922C347.685 189.398 345.062 192.021 345.062 195.257V265.471C345.062 268.708 347.685 271.331 350.922 271.331C354.158 271.331 356.781 268.708 356.781 265.471V201.116H394.281V382.562H356.781V318.208C356.781 314.971 354.158 312.348 350.922 312.348C347.685 312.348 345.062 314.971 345.062 318.208V388.422C345.062 391.658 347.685 394.281 350.922 394.281H400.141C403.377 394.281 406 391.658 406 388.422V195.257C406 192.023 403.377 189.398 400.141 189.398V189.398Z" fill="black"/>
<path d="M350.922 297.702C352.462 297.702 353.975 297.075 355.065 295.983C356.154 294.894 356.781 293.383 356.781 291.843C356.781 290.296 356.154 288.79 355.065 287.7C353.975 286.604 352.462 285.984 350.922 285.984C349.382 285.984 347.869 286.604 346.779 287.7C345.69 288.79 345.062 290.296 345.062 291.843C345.062 293.383 345.69 294.894 346.779 295.983C347.869 297.075 349.382 297.702 350.922 297.702Z" fill="black"/>
</svg>
